<svg xmlns="http://www.w3.org/2000/svg" width="1920" height="1080"><path d="M-192,-244L102,-233L781,-255Z" fill="#eaf7c2" stroke="#eaf7c2" stroke-width="1.51"/><path d="M102,-233L321,-212L781,-255Z" fill="#ddf1c2" stroke="#ddf1c2" stroke-width="1.51"/><path d="M394,1321L35,1329L884,1331Z" fill="#6b7b8d" stroke="#6b7b8d" stroke-width="1.51"/><path d="M861,-255L1187,-234L1473,-243Z" fill="#a5cbca" stroke="#a5cbca" stroke-width="1.51"/><path d="M1538,1279L1142,1260L1617,1303Z" fill="#1f4c90" stroke="#1f4c90" stroke-width="1.51"/><path d="M1142,1260L884,1331L1617,1303Z" fill="#245b95" stroke="#245b95" stroke-width="1.51"/><path d="M861,-255L1473,-243L1648,-247Z" fill="#a1bfc8" stroke="#a1bfc8" stroke-width="1.51"/><path d="M781,-255L861,-255L2033,-266Z" fill="#a4c8cb" stroke="#a4c8cb" stroke-width="1.51"/><path d="M861,-255L1648,-247L2033,-266Z" fill="#9faec1" stroke="#9faec1" stroke-width="1.51"/><path d="M1648,-247L1961,-227L2033,-266Z" fill="#9b91b3" stroke="#9b91b3" stroke-width="1.51"/><path d="M1965,1101L2047,1194L2071,971Z" fill="#1e3486" stroke="#1e3486" stroke-width="1.51"/><path d="M2033,-266L2051,-71L2109,104Z" fill="#898690" stroke="#898690" stroke-width="1.51"/><path d="M1902,1256L1617,1303L2109,1275Z" fill="#1c2c81" stroke="#1c2c81" stroke-width="1.51"/><path d="M2093,863L2071,971L2109,1275Z" fill="#1b3782" stroke="#1b3782" stroke-width="1.51"/><path d="M2071,971L2047,1194L2109,1275Z" fill="#1b2d7e" stroke="#1b2d7e" stroke-width="1.51"/><path d="M2109,104L2076,282L2112,530Z" fill="#55748f" stroke="#55748f" stroke-width="1.51"/><path d="M2076,282L2071,432L2112,530Z" fill="#466f92" stroke="#466f92" stroke-width="1.51"/><path d="M1975,843L2093,863L2139,638Z" fill="#1f5492" stroke="#1f5492" stroke-width="1.51"/><path d="M1897,670L1975,843L2139,638Z" fill="#275e9c" stroke="#275e9c" stroke-width="1.51"/><path d="M2112,530L1926,571L2139,638Z" fill="#306797" stroke="#306797" stroke-width="1.51"/><path d="M1926,571L1897,670L2139,638Z" fill="#30669e" stroke="#30669e" stroke-width="1.51"/><path d="M2093,863L2109,1275L2139,638Z" fill="#1a4185" stroke="#1a4185" stroke-width="1.51"/><path d="M2109,104L2112,530L2139,638Z" fill="#436d8f" stroke="#436d8f" stroke-width="1.51"/><path d="M2033,-266L1961,-227L2051,-71Z" fill="#908a9f" stroke="#908a9f" stroke-width="1.51"/><path d="M1961,-227L1956,-113L2051,-71Z" fill="#908b9d" stroke="#908b9d" stroke-width="1.51"/><path d="M1980,996L1965,1101L2071,971Z" fill="#1f3c8b" stroke="#1f3c8b" stroke-width="1.51"/><path d="M2051,-71L1882,61L2109,104Z" fill="#838596" stroke="#838596" stroke-width="1.51"/><path d="M1888,273L2076,282L2109,104Z" fill="#697c96" stroke="#697c96" stroke-width="1.51"/><path d="M1882,61L1888,273L2109,104Z" fill="#7a839c" stroke="#7a839c" stroke-width="1.51"/><path d="M2071,432L1926,571L2112,530Z" fill="#3a6c99" stroke="#3a6c99" stroke-width="1.51"/><path d="M2047,1194L1902,1256L2109,1275Z" fill="#182977" stroke="#182977" stroke-width="1.51"/><path d="M1648,-247L1779,-193L1961,-227Z" fill="#9c97b5" stroke="#9c97b5" stroke-width="1.51"/><path d="M1899,355L2071,432L2076,282Z" fill="#527599" stroke="#527599" stroke-width="1.51"/><path d="M1975,843L2071,971L2093,863Z" fill="#1e498e" stroke="#1e498e" stroke-width="1.51"/><path d="M1816,1238L1617,1303L1902,1256Z" fill="#1e3486" stroke="#1e3486" stroke-width="1.51"/><path d="M1975,843L1980,996L2071,971Z" fill="#1f4590" stroke="#1f4590" stroke-width="1.51"/><path d="M1888,273L1899,355L2076,282Z" fill="#5e7b9f" stroke="#5e7b9f" stroke-width="1.51"/><path d="M1956,-113L1882,61L2051,-71Z" fill="#8c8a9b" stroke="#8c8a9b" stroke-width="1.51"/><path d="M1899,355L1926,571L2071,432Z" fill="#47739f" stroke="#47739f" stroke-width="1.51"/><path d="M1965,1101L1902,1256L2047,1194Z" fill="#1e2e84" stroke="#1e2e84" stroke-width="1.51"/><path d="M1882,61L1835,97L1888,273Z" fill="#8088a6" stroke="#8088a6" stroke-width="1.51"/><path d="M1789,716L1796,837L1897,670Z" fill="#2c65ab" stroke="#2c65ab" stroke-width="1.51"/><path d="M1899,355L1795,421L1926,571Z" fill="#4d77a9" stroke="#4d77a9" stroke-width="1.51"/><path d="M1815,-100L1882,61L1956,-113Z" fill="#938ea3" stroke="#938ea3" stroke-width="1.51"/><path d="M1806,1104L1902,1256L1965,1101Z" fill="#243391" stroke="#243391" stroke-width="1.51"/><path d="M1837,954L1806,1104L1965,1101Z" fill="#263f98" stroke="#263f98" stroke-width="1.51"/><path d="M1897,670L1796,837L1975,843Z" fill="#295da5" stroke="#295da5" stroke-width="1.51"/><path d="M1975,843L1837,954L1980,996Z" fill="#234898" stroke="#234898" stroke-width="1.51"/><path d="M1837,954L1965,1101L1980,996Z" fill="#234094" stroke="#234094" stroke-width="1.51"/><path d="M1815,-100L1956,-113L1961,-227Z" fill="#958ea6" stroke="#958ea6" stroke-width="1.51"/><path d="M1796,837L1837,954L1975,843Z" fill="#2852a2" stroke="#2852a2" stroke-width="1.51"/><path d="M1806,1104L1816,1238L1902,1256Z" fill="#22338e" stroke="#22338e" stroke-width="1.51"/><path d="M1779,-193L1815,-100L1961,-227Z" fill="#9a92af" stroke="#9a92af" stroke-width="1.51"/><path d="M1835,97L1782,204L1888,273Z" fill="#7888a8" stroke="#7888a8" stroke-width="1.51"/><path d="M1795,421L1824,587L1926,571Z" fill="#4175ad" stroke="#4175ad" stroke-width="1.51"/><path d="M1824,587L1897,670L1926,571Z" fill="#386ca9" stroke="#386ca9" stroke-width="1.51"/><path d="M1888,273L1795,421L1899,355Z" fill="#5b7da9" stroke="#5b7da9" stroke-width="1.51"/><path d="M1815,-100L1835,97L1882,61Z" fill="#8e8ea7" stroke="#8e8ea7" stroke-width="1.51"/><path d="M1824,587L1789,716L1897,670Z" fill="#346bac" stroke="#346bac" stroke-width="1.51"/><path d="M1782,204L1795,421L1888,273Z" fill="#6483aa" stroke="#6483aa" stroke-width="1.51"/><path d="M1379,1237L1142,1260L1538,1279Z" fill="#225497" stroke="#225497" stroke-width="1.51"/><path d="M1187,-234L1326,-220L1473,-243Z" fill="#a1bfc6" stroke="#a1bfc6" stroke-width="1.51"/><path d="M1651,186L1583,391L1782,204Z" fill="#6c90ae" stroke="#6c90ae" stroke-width="1.51"/><path d="M1782,204L1583,391L1795,421Z" fill="#5c88ad" stroke="#5c88ad" stroke-width="1.51"/><path d="M1806,1104L1639,1186L1816,1238Z" fill="#253b95" stroke="#253b95" stroke-width="1.51"/><path d="M1795,421L1587,490L1824,587Z" fill="#447eb0" stroke="#447eb0" stroke-width="1.51"/><path d="M1815,-100L1609,-56L1835,97Z" fill="#9296aa" stroke="#9296aa" stroke-width="1.51"/><path d="M1609,-56L1610,124L1835,97Z" fill="#8b99ac" stroke="#8b99ac" stroke-width="1.51"/><path d="M1796,837L1682,878L1837,954Z" fill="#2757a5" stroke="#2757a5" stroke-width="1.51"/><path d="M1611,993L1806,1104L1837,954Z" fill="#264a9f" stroke="#264a9f" stroke-width="1.51"/><path d="M1682,878L1611,993L1837,954Z" fill="#2555a4" stroke="#2555a4" stroke-width="1.51"/><path d="M1651,186L1782,204L1835,97Z" fill="#7e8faa" stroke="#7e8faa" stroke-width="1.51"/><path d="M1610,124L1651,186L1835,97Z" fill="#8295ac" stroke="#8295ac" stroke-width="1.51"/><path d="M1609,741L1789,716L1824,587Z" fill="#3070af" stroke="#3070af" stroke-width="1.51"/><path d="M1587,490L1609,741L1824,587Z" fill="#357bb2" stroke="#357bb2" stroke-width="1.51"/><path d="M1639,1186L1617,1303L1816,1238Z" fill="#203b8d" stroke="#203b8d" stroke-width="1.51"/><path d="M1779,-193L1609,-56L1815,-100Z" fill="#999aad" stroke="#999aad" stroke-width="1.51"/><path d="M1609,741L1682,878L1789,716Z" fill="#286aae" stroke="#286aae" stroke-width="1.51"/><path d="M1789,716L1682,878L1796,837Z" fill="#2962aa" stroke="#2962aa" stroke-width="1.51"/><path d="M1611,993L1639,1186L1806,1104Z" fill="#26479d" stroke="#26479d" stroke-width="1.51"/><path d="M1583,391L1587,490L1795,421Z" fill="#4d88b1" stroke="#4d88b1" stroke-width="1.51"/><path d="M1648,-247L1609,-56L1779,-193Z" fill="#9b9fb3" stroke="#9b9fb3" stroke-width="1.51"/><path d="M321,-212L418,-207L781,-255Z" fill="#d1ecc2" stroke="#d1ecc2" stroke-width="1.51"/><path d="M1078,1266L884,1331L1142,1260Z" fill="#306798" stroke="#306798" stroke-width="1.51"/><path d="M1587,490L1529,717L1609,741Z" fill="#2f7eb5" stroke="#2f7eb5" stroke-width="1.51"/><path d="M1611,993L1494,1108L1639,1186Z" fill="#254ea1" stroke="#254ea1" stroke-width="1.51"/><path d="M1450,280L1583,391L1651,186Z" fill="#6696b2" stroke="#6696b2" stroke-width="1.51"/><path d="M1609,741L1430,856L1682,878Z" fill="#246caf" stroke="#246caf" stroke-width="1.51"/><path d="M1430,856L1514,982L1682,878Z" fill="#2365ab" stroke="#2365ab" stroke-width="1.51"/><path d="M1514,982L1611,993L1682,878Z" fill="#235ba7" stroke="#235ba7" stroke-width="1.51"/><path d="M1529,717L1430,856L1609,741Z" fill="#2377b4" stroke="#2377b4" stroke-width="1.51"/><path d="M1609,-56L1507,126L1610,124Z" fill="#8aa1af" stroke="#8aa1af" stroke-width="1.51"/><path d="M1538,1279L1617,1303L1639,1186Z" fill="#1f418e" stroke="#1f418e" stroke-width="1.51"/><path d="M1473,-243L1609,-56L1648,-247Z" fill="#9ba8b8" stroke="#9ba8b8" stroke-width="1.51"/><path d="M1610,124L1507,126L1651,186Z" fill="#809db0" stroke="#809db0" stroke-width="1.51"/><path d="M1507,126L1450,280L1651,186Z" fill="#779eb2" stroke="#779eb2" stroke-width="1.51"/><path d="M1473,-243L1432,-90L1609,-56Z" fill="#9badb6" stroke="#9badb6" stroke-width="1.51"/><path d="M1494,1108L1538,1279L1639,1186Z" fill="#244799" stroke="#244799" stroke-width="1.51"/><path d="M1450,280L1462,372L1583,391Z" fill="#5998b5" stroke="#5998b5" stroke-width="1.51"/><path d="M1430,494L1529,717L1587,490Z" fill="#358ab8" stroke="#358ab8" stroke-width="1.51"/><path d="M1432,-90L1507,126L1609,-56Z" fill="#92a8b1" stroke="#92a8b1" stroke-width="1.51"/><path d="M1514,982L1494,1108L1611,993Z" fill="#2458a6" stroke="#2458a6" stroke-width="1.51"/><path d="M1583,391L1462,372L1587,490Z" fill="#4e91b5" stroke="#4e91b5" stroke-width="1.51"/><path d="M1462,372L1430,494L1587,490Z" fill="#4893b7" stroke="#4893b7" stroke-width="1.51"/><path d="M861,-255L1017,-217L1187,-234Z" fill="#aad5ca" stroke="#aad5ca" stroke-width="1.51"/><path d="M1348,-43L1345,81L1432,-90Z" fill="#95b6b7" stroke="#95b6b7" stroke-width="1.51"/><path d="M1432,-90L1345,81L1507,126Z" fill="#8fafb5" stroke="#8fafb5" stroke-width="1.51"/><path d="M1390,1019L1494,1108L1514,982Z" fill="#265da8" stroke="#265da8" stroke-width="1.51"/><path d="M1430,494L1339,582L1529,717Z" fill="#318fbb" stroke="#318fbb" stroke-width="1.51"/><path d="M1339,582L1340,667L1529,717Z" fill="#2c8cbc" stroke="#2c8cbc" stroke-width="1.51"/><path d="M1494,1108L1379,1237L1538,1279Z" fill="#244d9a" stroke="#244d9a" stroke-width="1.51"/><path d="M1340,667L1430,856L1529,717Z" fill="#2182b9" stroke="#2182b9" stroke-width="1.51"/><path d="M1345,81L1450,280L1507,126Z" fill="#7fa9b5" stroke="#7fa9b5" stroke-width="1.51"/><path d="M1430,856L1390,1019L1514,982Z" fill="#2367ad" stroke="#2367ad" stroke-width="1.51"/><path d="M1345,81L1297,257L1450,280Z" fill="#77adb9" stroke="#77adb9" stroke-width="1.51"/><path d="M1326,-220L1432,-90L1473,-243Z" fill="#9eb7be" stroke="#9eb7be" stroke-width="1.51"/><path d="M1390,1019L1318,1159L1494,1108Z" fill="#285da8" stroke="#285da8" stroke-width="1.51"/><path d="M1318,1159L1379,1237L1494,1108Z" fill="#2956a3" stroke="#2956a3" stroke-width="1.51"/><path d="M1346,385L1430,494L1462,372Z" fill="#4e9dba" stroke="#4e9dba" stroke-width="1.51"/><path d="M1305,888L1390,1019L1430,856Z" fill="#2371b2" stroke="#2371b2" stroke-width="1.51"/><path d="M1450,280L1346,385L1462,372Z" fill="#59a0b8" stroke="#59a0b8" stroke-width="1.51"/><path d="M1340,667L1305,888L1430,856Z" fill="#2281b9" stroke="#2281b9" stroke-width="1.51"/><path d="M1297,257L1346,385L1450,280Z" fill="#61a7ba" stroke="#61a7ba" stroke-width="1.51"/><path d="M1326,-220L1348,-43L1432,-90Z" fill="#9db9ba" stroke="#9db9ba" stroke-width="1.51"/><path d="M1346,385L1339,582L1430,494Z" fill="#419cbd" stroke="#419cbd" stroke-width="1.51"/><path d="M1219,660L1305,888L1340,667Z" fill="#1f8fbf" stroke="#1f8fbf" stroke-width="1.51"/><path d="M1229,226L1297,257L1345,81Z" fill="#7bb5bb" stroke="#7bb5bb" stroke-width="1.51"/><path d="M1205,396L1339,582L1346,385Z" fill="#46a5bf" stroke="#46a5bf" stroke-width="1.51"/><path d="M1305,888L1157,1000L1390,1019Z" fill="#2474b2" stroke="#2474b2" stroke-width="1.51"/><path d="M1157,1000L1225,1120L1390,1019Z" fill="#296eb0" stroke="#296eb0" stroke-width="1.51"/><path d="M1225,1120L1318,1159L1390,1019Z" fill="#2a64ab" stroke="#2a64ab" stroke-width="1.51"/><path d="M1219,660L1170,851L1305,888Z" fill="#228cbd" stroke="#228cbd" stroke-width="1.51"/><path d="M1318,1159L1142,1260L1379,1237Z" fill="#275da0" stroke="#275da0" stroke-width="1.51"/><path d="M1187,-234L1214,-10L1326,-220Z" fill="#a0c5c1" stroke="#a0c5c1" stroke-width="1.51"/><path d="M1205,396L1130,522L1339,582Z" fill="#3ea7c2" stroke="#3ea7c2" stroke-width="1.51"/><path d="M1339,582L1219,660L1340,667Z" fill="#2b97c0" stroke="#2b97c0" stroke-width="1.51"/><path d="M1144,127L1229,226L1345,81Z" fill="#84bcbc" stroke="#84bcbc" stroke-width="1.51"/><path d="M1297,257L1205,396L1346,385Z" fill="#59acbd" stroke="#59acbd" stroke-width="1.51"/><path d="M1214,-10L1345,81L1348,-43Z" fill="#93bcb9" stroke="#93bcb9" stroke-width="1.51"/><path d="M1326,-220L1214,-10L1348,-43Z" fill="#9dc0ba" stroke="#9dc0ba" stroke-width="1.51"/><path d="M1214,-10L1144,127L1345,81Z" fill="#8fbfbb" stroke="#8fbfbb" stroke-width="1.51"/><path d="M1130,522L1219,660L1339,582Z" fill="#31a1c2" stroke="#31a1c2" stroke-width="1.51"/><path d="M1225,1120L1142,1260L1318,1159Z" fill="#2d63a7" stroke="#2d63a7" stroke-width="1.51"/><path d="M1229,226L1205,396L1297,257Z" fill="#65b2be" stroke="#65b2be" stroke-width="1.51"/><path d="M1170,851L1157,1000L1305,888Z" fill="#277fb7" stroke="#277fb7" stroke-width="1.51"/><path d="M1187,-234L1079,-54L1214,-10Z" fill="#a1cabd" stroke="#a1cabd" stroke-width="1.51"/><path d="M1060,656L1170,851L1219,660Z" fill="#2999c2" stroke="#2999c2" stroke-width="1.51"/><path d="M1130,522L1060,656L1219,660Z" fill="#34a4c3" stroke="#34a4c3" stroke-width="1.51"/><path d="M1157,1000L1074,1154L1225,1120Z" fill="#326faf" stroke="#326faf" stroke-width="1.51"/><path d="M1074,1154L1142,1260L1225,1120Z" fill="#3268a8" stroke="#3268a8" stroke-width="1.51"/><path d="M1075,240L1205,396L1229,226Z" fill="#69b7be" stroke="#69b7be" stroke-width="1.51"/><path d="M1144,127L1075,240L1229,226Z" fill="#7cbebd" stroke="#7cbebd" stroke-width="1.51"/><path d="M1049,590L1060,656L1130,522Z" fill="#39aac3" stroke="#39aac3" stroke-width="1.51"/><path d="M1086,968L1157,1000L1170,851Z" fill="#2c80b6" stroke="#2c80b6" stroke-width="1.51"/><path d="M1060,656L1057,853L1170,851Z" fill="#2c96bf" stroke="#2c96bf" stroke-width="1.51"/><path d="M1079,-54L1144,127L1214,-10Z" fill="#96c7bc" stroke="#96c7bc" stroke-width="1.51"/><path d="M1017,-217L1079,-54L1187,-234Z" fill="#a5cfc3" stroke="#a5cfc3" stroke-width="1.51"/><path d="M1075,240L992,378L1205,396Z" fill="#60b9bf" stroke="#60b9bf" stroke-width="1.51"/><path d="M992,378L1130,522L1205,396Z" fill="#50b2c1" stroke="#50b2c1" stroke-width="1.51"/><path d="M1079,-54L1031,104L1144,127Z" fill="#93c9bc" stroke="#93c9bc" stroke-width="1.51"/><path d="M1057,853L1086,968L1170,851Z" fill="#2e88b9" stroke="#2e88b9" stroke-width="1.51"/><path d="M1086,968L1074,1154L1157,1000Z" fill="#3377b1" stroke="#3377b1" stroke-width="1.51"/><path d="M1074,1154L1078,1266L1142,1260Z" fill="#3267a1" stroke="#3267a1" stroke-width="1.51"/><path d="M1031,104L1075,240L1144,127Z" fill="#87c5bc" stroke="#87c5bc" stroke-width="1.51"/><path d="M992,378L915,505L1049,590Z" fill="#4ab7c3" stroke="#4ab7c3" stroke-width="1.51"/><path d="M932,713L1057,853L1060,656Z" fill="#30a0c2" stroke="#30a0c2" stroke-width="1.51"/><path d="M992,378L1049,590L1130,522Z" fill="#46b2c3" stroke="#46b2c3" stroke-width="1.51"/><path d="M712,1264L394,1321L884,1331Z" fill="#517392" stroke="#517392" stroke-width="1.51"/><path d="M917,967L842,1153L1074,1154Z" fill="#3f7bb0" stroke="#3f7bb0" stroke-width="1.51"/><path d="M1074,1154L842,1153L1078,1266Z" fill="#3a6fa7" stroke="#3a6fa7" stroke-width="1.51"/><path d="M842,1153L884,1331L1078,1266Z" fill="#3a6e9e" stroke="#3a6e9e" stroke-width="1.51"/><path d="M938,-46L1031,104L1079,-54Z" fill="#9bd0bc" stroke="#9bd0bc" stroke-width="1.51"/><path d="M1017,-217L938,-46L1079,-54Z" fill="#a5d4be" stroke="#a5d4be" stroke-width="1.51"/><path d="M917,967L1074,1154L1086,968Z" fill="#377db2" stroke="#377db2" stroke-width="1.51"/><path d="M1057,853L917,967L1086,968Z" fill="#3488b7" stroke="#3488b7" stroke-width="1.51"/><path d="M1031,104L866,245L1075,240Z" fill="#82c9be" stroke="#82c9be" stroke-width="1.51"/><path d="M866,245L992,378L1075,240Z" fill="#6fc3bf" stroke="#6fc3bf" stroke-width="1.51"/><path d="M932,713L842,862L1057,853Z" fill="#389cbf" stroke="#389cbf" stroke-width="1.51"/><path d="M1049,590L932,713L1060,656Z" fill="#37a8c3" stroke="#37a8c3" stroke-width="1.51"/><path d="M893,84L866,245L1031,104Z" fill="#8fcfbd" stroke="#8fcfbd" stroke-width="1.51"/><path d="M938,-46L893,84L1031,104Z" fill="#99d2bc" stroke="#99d2bc" stroke-width="1.51"/><path d="M842,862L917,967L1057,853Z" fill="#3a91b9" stroke="#3a91b9" stroke-width="1.51"/><path d="M915,505L932,713L1049,590Z" fill="#3db0c4" stroke="#3db0c4" stroke-width="1.51"/><path d="M861,-255L938,-46L1017,-217Z" fill="#aad9c4" stroke="#aad9c4" stroke-width="1.51"/><path d="M418,-207L585,-193L781,-255Z" fill="#c6e8c3" stroke="#c6e8c3" stroke-width="1.51"/><path d="M851,423L915,505L992,378Z" fill="#59bdc2" stroke="#59bdc2" stroke-width="1.51"/><path d="M866,245L851,423L992,378Z" fill="#67c2bf" stroke="#67c2bf" stroke-width="1.51"/><path d="M915,505L777,544L932,713Z" fill="#4ab4c3" stroke="#4ab4c3" stroke-width="1.51"/><path d="M777,544L731,666L932,713Z" fill="#4fb2c1" stroke="#4fb2c1" stroke-width="1.51"/><path d="M780,-76L893,84L938,-46Z" fill="#a5d8ba" stroke="#a5d8ba" stroke-width="1.51"/><path d="M861,-255L780,-76L938,-46Z" fill="#aedcbe" stroke="#aedcbe" stroke-width="1.51"/><path d="M690,1008L842,1153L917,967Z" fill="#4d85b0" stroke="#4d85b0" stroke-width="1.51"/><path d="M731,666L842,862L932,713Z" fill="#46a8c0" stroke="#46a8c0" stroke-width="1.51"/><path d="M690,1008L780,1156L842,1153Z" fill="#537fac" stroke="#537fac" stroke-width="1.51"/><path d="M731,666L758,859L842,862Z" fill="#4ea4bd" stroke="#4ea4bd" stroke-width="1.51"/><path d="M781,-255L780,-76L861,-255Z" fill="#b4dfc4" stroke="#b4dfc4" stroke-width="1.51"/><path d="M842,1153L780,1156L884,1331Z" fill="#4874a3" stroke="#4874a3" stroke-width="1.51"/><path d="M780,1156L712,1264L884,1331Z" fill="#4a739c" stroke="#4a739c" stroke-width="1.51"/><path d="M742,144L866,245L893,84Z" fill="#93d2bb" stroke="#93d2bb" stroke-width="1.51"/><path d="M842,862L690,1008L917,967Z" fill="#4a8fb5" stroke="#4a8fb5" stroke-width="1.51"/><path d="M851,423L777,544L915,505Z" fill="#59bdc2" stroke="#59bdc2" stroke-width="1.51"/><path d="M758,859L690,1008L842,862Z" fill="#5095b6" stroke="#5095b6" stroke-width="1.51"/><path d="M777,425L851,423L866,245Z" fill="#6dc5be" stroke="#6dc5be" stroke-width="1.51"/><path d="M780,-76L742,144L893,84Z" fill="#a3d8b9" stroke="#a3d8b9" stroke-width="1.51"/><path d="M777,425L777,544L851,423Z" fill="#61c0c0" stroke="#61c0c0" stroke-width="1.51"/><path d="M742,144L729,184L866,245Z" fill="#91d2bb" stroke="#91d2bb" stroke-width="1.51"/><path d="M574,1237L394,1321L712,1264Z" fill="#617996" stroke="#617996" stroke-width="1.51"/><path d="M636,290L777,425L866,245Z" fill="#79cabd" stroke="#79cabd" stroke-width="1.51"/><path d="M729,184L636,290L866,245Z" fill="#8bd0bb" stroke="#8bd0bb" stroke-width="1.51"/><path d="M547,-44L531,109L742,144Z" fill="#b1dfb7" stroke="#b1dfb7" stroke-width="1.51"/><path d="M731,666L636,690L758,859Z" fill="#56adbf" stroke="#56adbf" stroke-width="1.51"/><path d="M636,690L603,841L758,859Z" fill="#5aa8bb" stroke="#5aa8bb" stroke-width="1.51"/><path d="M588,358L537,487L777,425Z" fill="#78c9bd" stroke="#78c9bd" stroke-width="1.51"/><path d="M636,290L588,358L777,425Z" fill="#7ccbbc" stroke="#7ccbbc" stroke-width="1.51"/><path d="M777,425L537,487L777,544Z" fill="#69c3bf" stroke="#69c3bf" stroke-width="1.51"/><path d="M615,1187L712,1264L780,1156Z" fill="#5679a3" stroke="#5679a3" stroke-width="1.51"/><path d="M690,1008L615,1187L780,1156Z" fill="#5a81ab" stroke="#5a81ab" stroke-width="1.51"/><path d="M547,-44L742,144L780,-76Z" fill="#afdeb7" stroke="#afdeb7" stroke-width="1.51"/><path d="M585,-193L547,-44L780,-76Z" fill="#bde4b9" stroke="#bde4b9" stroke-width="1.51"/><path d="M585,-193L780,-76L781,-255Z" fill="#bae2c1" stroke="#bae2c1" stroke-width="1.51"/><path d="M636,690L731,666L777,544Z" fill="#5ab7c0" stroke="#5ab7c0" stroke-width="1.51"/><path d="M537,487L636,690L777,544Z" fill="#65bfbf" stroke="#65bfbf" stroke-width="1.51"/><path d="M603,841L690,1008L758,859Z" fill="#5899b6" stroke="#5899b6" stroke-width="1.51"/><path d="M531,109L729,184L742,144Z" fill="#a1d9b8" stroke="#a1d9b8" stroke-width="1.51"/><path d="M563,1020L615,1187L690,1008Z" fill="#6288ac" stroke="#6288ac" stroke-width="1.51"/><path d="M531,109L636,290L729,184Z" fill="#9dd8b8" stroke="#9dd8b8" stroke-width="1.51"/><path d="M603,841L563,1020L690,1008Z" fill="#6195b2" stroke="#6195b2" stroke-width="1.51"/><path d="M615,1187L574,1237L712,1264Z" fill="#5b7a9e" stroke="#5b7a9e" stroke-width="1.51"/><path d="M563,1020L449,1195L615,1187Z" fill="#6d85a9" stroke="#6d85a9" stroke-width="1.51"/><path d="M488,680L603,841L636,690Z" fill="#69b3bd" stroke="#69b3bd" stroke-width="1.51"/><path d="M537,487L488,680L636,690Z" fill="#72bfbe" stroke="#72bfbe" stroke-width="1.51"/><path d="M396,293L588,358L636,290Z" fill="#93d4b9" stroke="#93d4b9" stroke-width="1.51"/><path d="M531,109L396,293L636,290Z" fill="#a4dbb8" stroke="#a4dbb8" stroke-width="1.51"/><path d="M418,1040L563,1020L603,841Z" fill="#6e97b1" stroke="#6e97b1" stroke-width="1.51"/><path d="M386,788L418,1040L603,841Z" fill="#77a4b4" stroke="#77a4b4" stroke-width="1.51"/><path d="M449,1195L574,1237L615,1187Z" fill="#687fa1" stroke="#687fa1" stroke-width="1.51"/><path d="M418,1040L449,1195L563,1020Z" fill="#768dab" stroke="#768dab" stroke-width="1.51"/><path d="M488,680L386,788L603,841Z" fill="#74b3bb" stroke="#74b3bb" stroke-width="1.51"/><path d="M397,-109L547,-44L585,-193Z" fill="#cceab8" stroke="#cceab8" stroke-width="1.51"/><path d="M418,-207L397,-109L585,-193Z" fill="#d3edbd" stroke="#d3edbd" stroke-width="1.51"/><path d="M396,293L434,399L588,358Z" fill="#96d4ba" stroke="#96d4ba" stroke-width="1.51"/><path d="M434,399L537,487L588,358Z" fill="#89cfbc" stroke="#89cfbc" stroke-width="1.51"/><path d="M419,43L531,109L547,-44Z" fill="#c1e6b5" stroke="#c1e6b5" stroke-width="1.51"/><path d="M449,1195L394,1321L574,1237Z" fill="#6e7e99" stroke="#6e7e99" stroke-width="1.51"/><path d="M386,506L488,680L537,487Z" fill="#80c9be" stroke="#80c9be" stroke-width="1.51"/><path d="M397,-109L419,43L547,-44Z" fill="#cceab4" stroke="#cceab4" stroke-width="1.51"/><path d="M386,788L311,983L418,1040Z" fill="#82a2b1" stroke="#82a2b1" stroke-width="1.51"/><path d="M419,43L396,293L531,109Z" fill="#bae3b6" stroke="#bae3b6" stroke-width="1.51"/><path d="M434,399L386,506L537,487Z" fill="#8ccfbc" stroke="#8ccfbc" stroke-width="1.51"/><path d="M233,90L396,293L419,43Z" fill="#c5e8b5" stroke="#c5e8b5" stroke-width="1.51"/><path d="M418,1040L338,1169L449,1195Z" fill="#7f8ba8" stroke="#7f8ba8" stroke-width="1.51"/><path d="M386,506L318,722L488,680Z" fill="#87c4bc" stroke="#87c4bc" stroke-width="1.51"/><path d="M318,722L386,788L488,680Z" fill="#83bbbc" stroke="#83bbbc" stroke-width="1.51"/><path d="M249,537L318,722L386,506Z" fill="#90cbbc" stroke="#90cbbc" stroke-width="1.51"/><path d="M233,90L282,285L396,293Z" fill="#bbe4b5" stroke="#bbe4b5" stroke-width="1.51"/><path d="M397,-109L312,-99L419,43Z" fill="#d7eeb3" stroke="#d7eeb3" stroke-width="1.51"/><path d="M319,1261L394,1321L449,1195Z" fill="#778197" stroke="#778197" stroke-width="1.51"/><path d="M338,1169L319,1261L449,1195Z" fill="#7e859f" stroke="#7e859f" stroke-width="1.51"/><path d="M254,817L311,983L386,788Z" fill="#88adb5" stroke="#88adb5" stroke-width="1.51"/><path d="M319,1261L35,1329L394,1321Z" fill="#7d8290" stroke="#7d8290" stroke-width="1.51"/><path d="M396,293L266,344L434,399Z" fill="#a3dab8" stroke="#a3dab8" stroke-width="1.51"/><path d="M266,344L386,506L434,399Z" fill="#9dd6ba" stroke="#9dd6ba" stroke-width="1.51"/><path d="M321,-212L397,-109L418,-207Z" fill="#ddf1bc" stroke="#ddf1bc" stroke-width="1.51"/><path d="M311,983L338,1169L418,1040Z" fill="#8494ab" stroke="#8494ab" stroke-width="1.51"/><path d="M312,-99L233,90L419,43Z" fill="#d5eeb3" stroke="#d5eeb3" stroke-width="1.51"/><path d="M266,344L249,537L386,506Z" fill="#9dd5bb" stroke="#9dd5bb" stroke-width="1.51"/><path d="M282,285L266,344L396,293Z" fill="#addeb7" stroke="#addeb7" stroke-width="1.51"/><path d="M321,-212L312,-99L397,-109Z" fill="#def2b8" stroke="#def2b8" stroke-width="1.51"/><path d="M318,722L254,817L386,788Z" fill="#89b9ba" stroke="#89b9ba" stroke-width="1.51"/><path d="M233,90L186,237L282,285Z" fill="#c3e7b5" stroke="#c3e7b5" stroke-width="1.51"/><path d="M89,1234L35,1329L319,1261Z" fill="#868694" stroke="#868694" stroke-width="1.51"/><path d="M311,983L155,1013L338,1169Z" fill="#8a97ab" stroke="#8a97ab" stroke-width="1.51"/><path d="M155,1013L124,1114L338,1169Z" fill="#8e93a9" stroke="#8e93a9" stroke-width="1.51"/><path d="M124,1114L319,1261L338,1169Z" fill="#888aa3" stroke="#888aa3" stroke-width="1.51"/><path d="M137,843L155,1013L254,817Z" fill="#91acb3" stroke="#91acb3" stroke-width="1.51"/><path d="M254,817L155,1013L311,983Z" fill="#8ca5b1" stroke="#8ca5b1" stroke-width="1.51"/><path d="M85,-64L233,90L312,-99Z" fill="#dff2b3" stroke="#dff2b3" stroke-width="1.51"/><path d="M249,537L123,743L318,722Z" fill="#94c6bc" stroke="#94c6bc" stroke-width="1.51"/><path d="M124,1114L89,1234L319,1261Z" fill="#8b8a9f" stroke="#8b8a9f" stroke-width="1.51"/><path d="M102,-233L312,-99L321,-212Z" fill="#e6f5bc" stroke="#e6f5bc" stroke-width="1.51"/><path d="M177,334L249,537L266,344Z" fill="#a7dab9" stroke="#a7dab9" stroke-width="1.51"/><path d="M102,-233L85,-64L312,-99Z" fill="#e9f7b6" stroke="#e9f7b6" stroke-width="1.51"/><path d="M123,743L254,817L318,722Z" fill="#90bcba" stroke="#90bcba" stroke-width="1.51"/><path d="M178,110L186,237L233,90Z" fill="#cfecb4" stroke="#cfecb4" stroke-width="1.51"/><path d="M177,334L110,512L249,537Z" fill="#a5d8ba" stroke="#a5d8ba" stroke-width="1.51"/><path d="M110,512L123,743L249,537Z" fill="#9ccfbc" stroke="#9ccfbc" stroke-width="1.51"/><path d="M177,334L266,344L282,285Z" fill="#afdfb7" stroke="#afdfb7" stroke-width="1.51"/><path d="M186,237L177,334L282,285Z" fill="#b8e2b6" stroke="#b8e2b6" stroke-width="1.51"/><path d="M85,-64L178,110L233,90Z" fill="#dbf1b3" stroke="#dbf1b3" stroke-width="1.51"/><path d="M123,743L137,843L254,817Z" fill="#94b8b8" stroke="#94b8b8" stroke-width="1.51"/><path d="M-192,-244L32,-201L102,-233Z" fill="#f6fcc5" stroke="#f6fcc5" stroke-width="1.51"/><path d="M110,512L24,543L123,743Z" fill="#a1d0bb" stroke="#a1d0bb" stroke-width="1.51"/><path d="M137,843L39,876L155,1013Z" fill="#96abb2" stroke="#96abb2" stroke-width="1.51"/><path d="M-34,386L110,512L177,334Z" fill="#b1ddb8" stroke="#b1ddb8" stroke-width="1.51"/><path d="M85,-64L-70,35L178,110Z" fill="#e3f4b2" stroke="#e3f4b2" stroke-width="1.51"/><path d="M178,110L-10,201L186,237Z" fill="#ceebb4" stroke="#ceebb4" stroke-width="1.51"/><path d="M-10,201L177,334L186,237Z" fill="#c2e6b6" stroke="#c2e6b6" stroke-width="1.51"/><path d="M32,-201L85,-64L102,-233Z" fill="#f0f9ba" stroke="#f0f9ba" stroke-width="1.51"/><path d="M39,876L14,990L155,1013Z" fill="#98a6af" stroke="#98a6af" stroke-width="1.51"/><path d="M-10,201L-34,386L177,334Z" fill="#bfe4b7" stroke="#bfe4b7" stroke-width="1.51"/><path d="M-70,35L-10,201L178,110Z" fill="#dcf2b5" stroke="#dcf2b5" stroke-width="1.51"/><path d="M24,543L-40,745L123,743Z" fill="#a1cabc" stroke="#a1cabc" stroke-width="1.51"/><path d="M14,990L124,1114L155,1013Z" fill="#959dac" stroke="#959dac" stroke-width="1.51"/><path d="M123,743L39,876L137,843Z" fill="#98b8b6" stroke="#98b8b6" stroke-width="1.51"/><path d="M-34,386L24,543L110,512Z" fill="#acdbbc" stroke="#acdbbc" stroke-width="1.51"/><path d="M-40,745L39,876L123,743Z" fill="#9cbdba" stroke="#9cbdba" stroke-width="1.51"/><path d="M-23,1123L89,1234L124,1114Z" fill="#9790a6" stroke="#9790a6" stroke-width="1.51"/><path d="M14,990L-23,1123L124,1114Z" fill="#989aab" stroke="#989aab" stroke-width="1.51"/><path d="M-69,-45L-70,35L85,-64Z" fill="#ebf7b6" stroke="#ebf7b6" stroke-width="1.51"/><path d="M32,-201L-69,-45L85,-64Z" fill="#f0f9b7" stroke="#f0f9b7" stroke-width="1.51"/><path d="M-23,1123L35,1329L89,1234Z" fill="#918b9d" stroke="#918b9d" stroke-width="1.51"/><path d="M-34,386L-126,568L24,543Z" fill="#acdac1" stroke="#acdac1" stroke-width="1.51"/><path d="M-126,568L-40,745L24,543Z" fill="#a5d1c2" stroke="#a5d1c2" stroke-width="1.51"/><path d="M-23,1123L-153,1277L35,1329Z" fill="#918b9f" stroke="#918b9f" stroke-width="1.51"/><path d="M-144,840L14,990L39,876Z" fill="#9caeb8" stroke="#9caeb8" stroke-width="1.51"/><path d="M-40,745L-144,840L39,876Z" fill="#9ebabd" stroke="#9ebabd" stroke-width="1.51"/><path d="M-192,-244L-69,-45L32,-201Z" fill="#f5fbc2" stroke="#f5fbc2" stroke-width="1.51"/><path d="M-123,388L-126,568L-34,386Z" fill="#b2dec3" stroke="#b2dec3" stroke-width="1.51"/><path d="M-70,35L-154,136L-10,201Z" fill="#dff2bb" stroke="#dff2bb" stroke-width="1.51"/><path d="M-123,388L-34,386L-10,201Z" fill="#bee4be" stroke="#bee4be" stroke-width="1.51"/><path d="M-144,192L-123,388L-10,201Z" fill="#caeabf" stroke="#caeabf" stroke-width="1.51"/><path d="M-144,840L-193,952L14,990Z" fill="#9dacbb" stroke="#9dacbb" stroke-width="1.51"/><path d="M-126,568L-160,704L-40,745Z" fill="#a4ccc6" stroke="#a4ccc6" stroke-width="1.51"/><path d="M-193,952L-23,1123L14,990Z" fill="#9ba1b4" stroke="#9ba1b4" stroke-width="1.51"/><path d="M-205,1156L-153,1277L-23,1123Z" fill="#9890ad" stroke="#9890ad" stroke-width="1.51"/><path d="M-193,952L-205,1156L-23,1123Z" fill="#9c9bb6" stroke="#9c9bb6" stroke-width="1.51"/><path d="M-154,136L-144,192L-10,201Z" fill="#d7efbe" stroke="#d7efbe" stroke-width="1.51"/><path d="M-192,-244L-191,-6L-69,-45Z" fill="#f5fbc1" stroke="#f5fbc1" stroke-width="1.51"/><path d="M-160,704L-144,840L-40,745Z" fill="#a1c3c4" stroke="#a1c3c4" stroke-width="1.51"/><path d="M-191,-6L-154,136L-70,35Z" fill="#e7f6bf" stroke="#e7f6bf" stroke-width="1.51"/><path d="M-191,-6L-70,35L-69,-45Z" fill="#ecf8bd" stroke="#ecf8bd" stroke-width="1.51"/><path d="M-160,704L-126,568L-123,388Z" fill="#aad8c8" stroke="#aad8c8" stroke-width="1.51"/><path d="M-144,192L-160,704L-123,388Z" fill="#b6dfc6" stroke="#b6dfc6" stroke-width="1.51"/><path d="M-160,704L-193,952L-144,840Z" fill="#a0bac4" stroke="#a0bac4" stroke-width="1.51"/><path d="M-154,136L-191,-6L-144,192Z" fill="#e3f4c1" stroke="#e3f4c1" stroke-width="1.51"/><path d="M-191,-6L-160,704L-144,192Z" fill="#c6e8c5" stroke="#c6e8c5" stroke-width="1.51"/><path d="M-191,-6L-193,952L-160,704Z" fill="#abd9cb" stroke="#abd9cb" stroke-width="1.51"/><path d="M-205,1156L-193,952L-191,-6Z" fill="#a4cacb" stroke="#a4cacb" stroke-width="1.51"/></svg>